<mxfile host="app.diagrams.net" modified="2023-08-11T14:40:50.036Z" agent="Mozilla/5.0 (Windows NT 10.0; Win64; x64) AppleWebKit/537.36 (KHTML, like Gecko) Chrome/115.0.0.0 Safari/537.36" etag="fYjV_Su5skLeAHEWgD0H" version="21.6.8" type="device">
  <diagram name="PÃ¡gina-1" id="RrvrSMXAGpNcy56cFGti">
    <mxGraphModel dx="2261" dy="768" grid="1" gridSize="10" guides="1" tooltips="1" connect="1" arrows="1" fold="1" page="1" pageScale="1" pageWidth="827" pageHeight="1169" math="0" shadow="0">
      <root>
        <mxCell id="0" />
        <mxCell id="1" parent="0" />
        <mxCell id="HoGe_k6gd-0K-cZI1JR4-8" style="rounded=0;orthogonalLoop=1;jettySize=auto;html=1;exitX=1;exitY=0.5;exitDx=0;exitDy=0;entryX=0;entryY=0.5;entryDx=0;entryDy=0;endArrow=classic;endFill=1;" edge="1" parent="1" source="HoGe_k6gd-0K-cZI1JR4-1" target="HoGe_k6gd-0K-cZI1JR4-7">
          <mxGeometry relative="1" as="geometry" />
        </mxCell>
        <mxCell id="HoGe_k6gd-0K-cZI1JR4-1" value="conteudo" style="rounded=0;whiteSpace=wrap;html=1;" vertex="1" parent="1">
          <mxGeometry x="60" y="250" width="120" height="60" as="geometry" />
        </mxCell>
        <mxCell id="HoGe_k6gd-0K-cZI1JR4-31" style="rounded=0;orthogonalLoop=1;jettySize=auto;html=1;exitX=0.5;exitY=1;exitDx=0;exitDy=0;entryX=0.25;entryY=0;entryDx=0;entryDy=0;endArrow=none;endFill=0;" edge="1" parent="1" source="HoGe_k6gd-0K-cZI1JR4-2" target="HoGe_k6gd-0K-cZI1JR4-1">
          <mxGeometry relative="1" as="geometry" />
        </mxCell>
        <mxCell id="HoGe_k6gd-0K-cZI1JR4-2" value="id" style="ellipse;whiteSpace=wrap;html=1;" vertex="1" parent="1">
          <mxGeometry x="40" y="190" width="40" height="30" as="geometry" />
        </mxCell>
        <mxCell id="HoGe_k6gd-0K-cZI1JR4-32" style="rounded=0;orthogonalLoop=1;jettySize=auto;html=1;exitX=0.5;exitY=1;exitDx=0;exitDy=0;entryX=0.5;entryY=0;entryDx=0;entryDy=0;endArrow=none;endFill=0;" edge="1" parent="1" source="HoGe_k6gd-0K-cZI1JR4-4" target="HoGe_k6gd-0K-cZI1JR4-1">
          <mxGeometry relative="1" as="geometry" />
        </mxCell>
        <mxCell id="HoGe_k6gd-0K-cZI1JR4-4" value="tipo" style="ellipse;whiteSpace=wrap;html=1;" vertex="1" parent="1">
          <mxGeometry x="100" y="190" width="40" height="30" as="geometry" />
        </mxCell>
        <mxCell id="HoGe_k6gd-0K-cZI1JR4-5" value="autor" style="rounded=0;whiteSpace=wrap;html=1;" vertex="1" parent="1">
          <mxGeometry x="310" y="250" width="120" height="60" as="geometry" />
        </mxCell>
        <mxCell id="HoGe_k6gd-0K-cZI1JR4-33" style="rounded=0;orthogonalLoop=1;jettySize=auto;html=1;exitX=0.5;exitY=1;exitDx=0;exitDy=0;entryX=0.5;entryY=0;entryDx=0;entryDy=0;endArrow=none;endFill=0;" edge="1" parent="1" source="HoGe_k6gd-0K-cZI1JR4-6" target="HoGe_k6gd-0K-cZI1JR4-5">
          <mxGeometry relative="1" as="geometry" />
        </mxCell>
        <mxCell id="HoGe_k6gd-0K-cZI1JR4-6" value="id" style="ellipse;whiteSpace=wrap;html=1;" vertex="1" parent="1">
          <mxGeometry x="340" y="190" width="45" height="30" as="geometry" />
        </mxCell>
        <mxCell id="HoGe_k6gd-0K-cZI1JR4-9" style="rounded=0;orthogonalLoop=1;jettySize=auto;html=1;exitX=1;exitY=0.5;exitDx=0;exitDy=0;entryX=0;entryY=0.5;entryDx=0;entryDy=0;endArrow=none;endFill=0;" edge="1" parent="1" source="HoGe_k6gd-0K-cZI1JR4-7" target="HoGe_k6gd-0K-cZI1JR4-5">
          <mxGeometry relative="1" as="geometry" />
        </mxCell>
        <mxCell id="HoGe_k6gd-0K-cZI1JR4-7" value="compos" style="rhombus;whiteSpace=wrap;html=1;" vertex="1" parent="1">
          <mxGeometry x="210" y="240" width="80" height="80" as="geometry" />
        </mxCell>
        <mxCell id="HoGe_k6gd-0K-cZI1JR4-30" style="rounded=0;orthogonalLoop=1;jettySize=auto;html=1;exitX=1;exitY=0.5;exitDx=0;exitDy=0;entryX=0;entryY=0.5;entryDx=0;entryDy=0;endArrow=none;endFill=0;" edge="1" parent="1" source="HoGe_k6gd-0K-cZI1JR4-10" target="HoGe_k6gd-0K-cZI1JR4-1">
          <mxGeometry relative="1" as="geometry" />
        </mxCell>
        <mxCell id="HoGe_k6gd-0K-cZI1JR4-10" value="genero" style="ellipse;whiteSpace=wrap;html=1;" vertex="1" parent="1">
          <mxGeometry x="-10" y="260" width="50" height="30" as="geometry" />
        </mxCell>
        <mxCell id="HoGe_k6gd-0K-cZI1JR4-15" style="rounded=0;orthogonalLoop=1;jettySize=auto;html=1;exitX=0;exitY=0.5;exitDx=0;exitDy=0;endArrow=classic;endFill=1;" edge="1" parent="1" source="HoGe_k6gd-0K-cZI1JR4-11" target="HoGe_k6gd-0K-cZI1JR4-13">
          <mxGeometry relative="1" as="geometry" />
        </mxCell>
        <mxCell id="HoGe_k6gd-0K-cZI1JR4-23" style="rounded=0;orthogonalLoop=1;jettySize=auto;html=1;exitX=0;exitY=0;exitDx=0;exitDy=0;entryX=1;entryY=1;entryDx=0;entryDy=0;endArrow=none;endFill=0;" edge="1" parent="1" source="HoGe_k6gd-0K-cZI1JR4-11" target="HoGe_k6gd-0K-cZI1JR4-19">
          <mxGeometry relative="1" as="geometry" />
        </mxCell>
        <mxCell id="HoGe_k6gd-0K-cZI1JR4-11" value="usuario" style="rounded=0;whiteSpace=wrap;html=1;" vertex="1" parent="1">
          <mxGeometry x="354" y="460" width="120" height="60" as="geometry" />
        </mxCell>
        <mxCell id="HoGe_k6gd-0K-cZI1JR4-12" value="conta" style="rounded=0;whiteSpace=wrap;html=1;" vertex="1" parent="1">
          <mxGeometry x="50" y="460" width="120" height="60" as="geometry" />
        </mxCell>
        <mxCell id="HoGe_k6gd-0K-cZI1JR4-16" style="rounded=0;orthogonalLoop=1;jettySize=auto;html=1;exitX=0;exitY=0.5;exitDx=0;exitDy=0;endArrow=none;endFill=0;" edge="1" parent="1" source="HoGe_k6gd-0K-cZI1JR4-13" target="HoGe_k6gd-0K-cZI1JR4-12">
          <mxGeometry relative="1" as="geometry" />
        </mxCell>
        <mxCell id="HoGe_k6gd-0K-cZI1JR4-13" value="viculo" style="rhombus;whiteSpace=wrap;html=1;" vertex="1" parent="1">
          <mxGeometry x="220" y="450" width="80" height="80" as="geometry" />
        </mxCell>
        <mxCell id="HoGe_k6gd-0K-cZI1JR4-29" style="rounded=0;orthogonalLoop=1;jettySize=auto;html=1;exitX=0.5;exitY=1;exitDx=0;exitDy=0;entryX=0.5;entryY=0;entryDx=0;entryDy=0;endArrow=none;endFill=0;" edge="1" parent="1" source="HoGe_k6gd-0K-cZI1JR4-17" target="HoGe_k6gd-0K-cZI1JR4-12">
          <mxGeometry relative="1" as="geometry" />
        </mxCell>
        <mxCell id="HoGe_k6gd-0K-cZI1JR4-17" value="nome" style="ellipse;whiteSpace=wrap;html=1;" vertex="1" parent="1">
          <mxGeometry x="70" y="410" width="50" height="40" as="geometry" />
        </mxCell>
        <mxCell id="HoGe_k6gd-0K-cZI1JR4-28" style="rounded=0;orthogonalLoop=1;jettySize=auto;html=1;exitX=0.5;exitY=1;exitDx=0;exitDy=0;entryX=0.5;entryY=0;entryDx=0;entryDy=0;endArrow=none;endFill=0;" edge="1" parent="1" source="HoGe_k6gd-0K-cZI1JR4-18" target="HoGe_k6gd-0K-cZI1JR4-11">
          <mxGeometry relative="1" as="geometry" />
        </mxCell>
        <mxCell id="HoGe_k6gd-0K-cZI1JR4-18" value="cpf" style="ellipse;whiteSpace=wrap;html=1;" vertex="1" parent="1">
          <mxGeometry x="389" y="400" width="50" height="40" as="geometry" />
        </mxCell>
        <mxCell id="HoGe_k6gd-0K-cZI1JR4-24" style="rounded=0;orthogonalLoop=1;jettySize=auto;html=1;exitX=0;exitY=0;exitDx=0;exitDy=0;entryX=0.5;entryY=1;entryDx=0;entryDy=0;endArrow=none;endFill=0;" edge="1" parent="1" source="HoGe_k6gd-0K-cZI1JR4-19" target="HoGe_k6gd-0K-cZI1JR4-1">
          <mxGeometry relative="1" as="geometry" />
        </mxCell>
        <mxCell id="HoGe_k6gd-0K-cZI1JR4-19" value="acessou" style="rhombus;whiteSpace=wrap;html=1;" vertex="1" parent="1">
          <mxGeometry x="210" y="350" width="80" height="80" as="geometry" />
        </mxCell>
        <mxCell id="HoGe_k6gd-0K-cZI1JR4-25" style="rounded=0;orthogonalLoop=1;jettySize=auto;html=1;exitX=1;exitY=0.5;exitDx=0;exitDy=0;entryX=0;entryY=0.5;entryDx=0;entryDy=0;endArrow=none;endFill=0;" edge="1" parent="1" source="HoGe_k6gd-0K-cZI1JR4-21" target="HoGe_k6gd-0K-cZI1JR4-19">
          <mxGeometry relative="1" as="geometry" />
        </mxCell>
        <mxCell id="HoGe_k6gd-0K-cZI1JR4-21" value="id" style="ellipse;whiteSpace=wrap;html=1;" vertex="1" parent="1">
          <mxGeometry x="150" y="375" width="40" height="30" as="geometry" />
        </mxCell>
        <mxCell id="HoGe_k6gd-0K-cZI1JR4-26" style="rounded=0;orthogonalLoop=1;jettySize=auto;html=1;exitX=0;exitY=0.5;exitDx=0;exitDy=0;entryX=1;entryY=0.5;entryDx=0;entryDy=0;endArrow=none;endFill=0;" edge="1" parent="1" source="HoGe_k6gd-0K-cZI1JR4-22" target="HoGe_k6gd-0K-cZI1JR4-19">
          <mxGeometry relative="1" as="geometry" />
        </mxCell>
        <mxCell id="HoGe_k6gd-0K-cZI1JR4-22" value="data" style="ellipse;whiteSpace=wrap;html=1;" vertex="1" parent="1">
          <mxGeometry x="320" y="375" width="40" height="30" as="geometry" />
        </mxCell>
      </root>
    </mxGraphModel>
  </diagram>
</mxfile>
